# xmcd
#
# Track frame offsets: 
#        150
#        14137
#        28950
#
# Disc length: 506 seconds
#
# Revision: 1
# Processed by: cddbd v1.5.2PL0 Copyright (c) Steve Scherf et al.
# Submitted via: ExactAudioCopy v0.99pb3
#
DISCID=2401f803
DTITLE=Southern Culture on the Skids - House of Bamboo - Single
DYEAR=1998
DGENRE=Twang
TTITLE0=House of Bamboo
TTITLE1=Country Girl
TTITLE2=The Sweeper
EXTD=YEAR: 2006
EXTT0=
EXTT1=
EXTT2=
PLAYORDER=
